{
  "accessors": [
    {
      "bufferView": 2,
      "componentType": 5126,
      "count": 65532,
      "max": [
        1.1801248788833618,
        1.1801251173019409,
        0.31029641628265381
      ],
      "min": [
        -1.1801251173019409,
        -1.1801251173019409,
        -0.31029641628265381
      ],
      "type": "VEC3"
    },
    {
      "bufferView": 2,
      "byteOffset": 786384,
      "componentType": 5126,
      "count": 65532,
      "max": [
        0.99996006488800049,
        0.99995982646942139,
        1
      ],
      "min": [
        -0.99996006488800049,
        -0.99997889995574951,
        -1
      ],
      "type": "VEC3"
    },
    {
      "bufferView": 1,
      "componentType": 5126,
      "count": 65532,
      "max": [
        1.0000001192092896,
        1.0000001192092896
      ],
      "min": [
        0.010742188431322575,
        -4.4408926278962182e-16
      ],
      "type": "VEC2"
    },
    {
      "bufferView": 0,
      "componentType": 5125,
      "count": 356331,
      "max": [
        65531
      ],
      "min": [
        0
      ],
      "type": "SCALAR"
    },
    {
      "bufferView": 2,
      "byteOffset": 1572768,
      "componentType": 5126,
      "count": 65532,
      "max": [
        0.99609225988388062,
        1.179523229598999,
        0.31029641628265381
      ],
      "min": [
        -1.1801011562347412,
        0.052662551403045654,
        -0.31029641628265381
      ],
      "type": "VEC3"
    },
    {
      "bufferView": 2,
      "byteOffset": 2359152,
      "componentType": 5126,
      "count": 65532,
      "max": [
        0.99997889995574951,
        0.99998128414154053,
        1
      ],
      "min": [
        -0.99996006488800049,
        -0.99996066093444824,
        -1
      ],
      "type": "VEC3"
    },
    {
      "bufferView": 1,
      "byteOffset": 524256,
      "componentType": 5126,
      "count": 65532,
      "max": [
        0.99503147602081299,
        1.0000001192092896
      ],
      "min": [
        0.5634039044380188,
        -4.4408926278962182e-16
      ],
      "type": "VEC2"
    },
    {
      "bufferView": 0,
      "byteOffset": 1425324,
      "componentType": 5125,
      "count": 366393,
      "max": [
        65531
      ],
      "min": [
        0
      ],
      "type": "SCALAR"
    },
    {
      "bufferView": 2,
      "byteOffset": 3145536,
      "componentType": 5126,
      "count": 65532,
      "max": [
        1.1267385482788086,
        1.0422636270523071,
        0.31029641628265381
      ],
      "min": [
        -1.1801011562347412,
        -0.97326290607452393,
        -0.31029641628265381
      ],
      "type": "VEC3"
    },
    {
      "bufferView": 2,
      "byteOffset": 3931920,
      "componentType": 5126,
      "count": 65532,
      "max": [
        0.9999241828918457,
        0.99996042251586914,
        1
      ],
      "min": [
        -0.99998140335083008,
        -0.9999241828918457,
        -1
      ],
      "type": "VEC3"
    },
    {
      "bufferView": 1,
      "byteOffset": 1048512,
      "componentType": 5126,
      "count": 65532,
      "max": [
        1.0000001192092896,
        1.0000001192092896
      ],
      "min": [
        0,
        -4.4408926278962182e-16
      ],
      "type": "VEC2"
    },
    {
      "bufferView": 0,
      "byteOffset": 2890896,
      "componentType": 5125,
      "count": 361752,
      "max": [
        65531
      ],
      "min": [
        0
      ],
      "type": "SCALAR"
    },
    {
      "bufferView": 2,
      "byteOffset": 4718304,
      "componentType": 5126,
      "count": 65532,
      "max": [
        1.1787128448486328,
        -0.012493366375565529,
        0.31029641628265381
      ],
      "min": [
        -1.167509913444519,
        -1.1801251173019409,
        -0.30857831239700317
      ],
      "type": "VEC3"
    },
    {
      "bufferView": 2,
      "byteOffset": 5504688,
      "componentType": 5126,
      "count": 65532,
      "max": [
        0.9998166561126709,
        0.99995481967926025,
        1
      ],
      "min": [
        -0.99998140335083008,
        -0.99995982646942139,
        -0.99999940395355225
      ],
      "type": "VEC3"
    },
    {
      "bufferView": 1,
      "byteOffset": 1572768,
      "componentType": 5126,
      "count": 65532,
      "max": [
        0.49609377980232239,
        1.0000001192092896
      ],
      "min": [
        0,
        -4.4408926278962182e-16
      ],
      "type": "VEC2"
    },
    {
      "bufferView": 0,
      "byteOffset": 4337904,
      "componentType": 5125,
      "count": 368916,
      "max": [
        65531
      ],
      "min": [
        0
      ],
      "type": "SCALAR"
    },
    {
      "bufferView": 2,
      "byteOffset": 6291072,
      "componentType": 5126,
      "count": 65532,
      "max": [
        1.1776862144470215,
        1.1382787227630615,
        0.30893439054489136
      ],
      "min": [
        -1.1527419090270996,
        -1.1799795627593994,
        -0.30893439054489136
      ],
      "type": "VEC3"
    },
    {
      "bufferView": 2,
      "byteOffset": 7077456,
      "componentType": 5126,
      "count": 65532,
      "max": [
        0.99998128414154053,
        0.99992048740386963,
        0.9999997615814209
      ],
      "min": [
        -0.99996066093444824,
        -0.99998140335083008,
        -0.99999940395355225
      ],
      "type": "VEC3"
    },
    {
      "bufferView": 1,
      "byteOffset": 2097024,
      "componentType": 5126,
      "count": 65532,
      "max": [
        1.0000001192092896,
        1.0000001192092896
      ],
      "min": [
        0.0024790149182081223,
        -4.4408926278962182e-16
      ],
      "type": "VEC2"
    },
    {
      "bufferView": 0,
      "byteOffset": 5813568,
      "componentType": 5125,
      "count": 358542,
      "max": [
        65531
      ],
      "min": [
        0
      ],
      "type": "SCALAR"
    },
    {
      "bufferView": 2,
      "byteOffset": 7863840,
      "componentType": 5126,
      "count": 20886,
      "max": [
        1.1671135425567627,
        1.1335982084274292,
        0.3068368136882782
      ],
      "min": [
        -1.1640952825546265,
        -1.1711777448654175,
        -0.30640041828155518
      ],
      "type": "VEC3"
    },
    {
      "bufferView": 2,
      "byteOffset": 8114472,
      "componentType": 5126,
      "count": 20886,
      "max": [
        0.99995481967926025,
        0.99997889995574951,
        0.99966943264007568
      ],
      "min": [
        -0.99981546401977539,
        -0.99952244758605957,
        -0.99974000453948975
      ],
      "type": "VEC3"
    },
    {
      "bufferView": 1,
      "byteOffset": 2621280,
      "componentType": 5126,
      "count": 20886,
      "max": [
        0.99511730670928955,
        1.0000001192092896
      ],
      "min": [
        5.7467349279249902e-07,
        -4.4408926278962182e-16
      ],
      "type": "VEC2"
    },
    {
      "bufferView": 0,
      "byteOffset": 7247736,
      "componentType": 5125,
      "count": 104994,
      "max": [
        20885
      ],
      "min": [
        0
      ],
      "type": "SCALAR"
    }
  ],
  "asset": {
    "extras": {
      "author": "sc8di (https://sketchfab.com/sc8di)",
      "license": "CC-BY-4.0 (http://creativecommons.org/licenses/by/4.0/)",
      "source": "https://sketchfab.com/3d-models/voronoi-style-bracelet-a3659aba760a44e1b66f6a43d5aba426",
      "title": "Voronoi Style Bracelet"
    },
    "generator": "Sketchfab-9.55.1",
    "version": "2.0"
  },
  "bufferViews": [
    {
      "buffer": 0,
      "byteLength": 7667712,
      "byteOffset": 0,
      "name": "floatBufferViews",
      "target": 34963
    },
    {
      "buffer": 0,
      "byteLength": 2788368,
      "byteOffset": 7667712,
      "byteStride": 8,
      "name": "floatBufferViews",
      "target": 34962
    },
    {
      "buffer": 0,
      "byteLength": 8365104,
      "byteOffset": 10456080,
      "byteStride": 12,
      "name": "floatBufferViews",
      "target": 34962
    }
  ],
  "buffers": [
    {
      "byteLength": 18821184,
      "uri": "scene.bin"
    }
  ],
  "materials": [
    {
      "doubleSided": true,
      "name": "Scene_-_Root",
      "pbrMetallicRoughness": {
        "baseColorFactor": [
          1,
          1,
          1,
          1
        ],
        "metallicFactor": 1,
        "roughnessFactor": 0
      }
    }
  ],
  "meshes": [
    {
      "name": "Torus__0",
      "primitives": [
        {
          "attributes": {
            "NORMAL": 1,
            "POSITION": 0,
            "TEXCOORD_0": 2
          },
          "indices": 3,
          "material": 0,
          "mode": 4
        }
      ]
    },
    {
      "name": "Torus__0",
      "primitives": [
        {
          "attributes": {
            "NORMAL": 5,
            "POSITION": 4,
            "TEXCOORD_0": 6
          },
          "indices": 7,
          "material": 0,
          "mode": 4
        }
      ]
    },
    {
      "name": "Torus__0",
      "primitives": [
        {
          "attributes": {
            "NORMAL": 9,
            "POSITION": 8,
            "TEXCOORD_0": 10
          },
          "indices": 11,
          "material": 0,
          "mode": 4
        }
      ]
    },
    {
      "name": "Torus__0",
      "primitives": [
        {
          "attributes": {
            "NORMAL": 13,
            "POSITION": 12,
            "TEXCOORD_0": 14
          },
          "indices": 15,
          "material": 0,
          "mode": 4
        }
      ]
    },
    {
      "name": "Torus__0",
      "primitives": [
        {
          "attributes": {
            "NORMAL": 17,
            "POSITION": 16,
            "TEXCOORD_0": 18
          },
          "indices": 19,
          "material": 0,
          "mode": 4
        }
      ]
    },
    {
      "name": "Torus__0",
      "primitives": [
        {
          "attributes": {
            "NORMAL": 21,
            "POSITION": 20,
            "TEXCOORD_0": 22
          },
          "indices": 23,
          "material": 0,
          "mode": 4
        }
      ]
    }
  ],
  "nodes": [
    {
      "children": [
        1
      ],
      "name": "RootNode (gltf orientation matrix)",
      "rotation": [
        -0.70710678118654746,
        -0,
        -0,
        0.70710678118654757
      ]
    },
    {
      "children": [
        2
      ],
      "name": "RootNode (model correction matrix)"
    },
    {
      "children": [
        3
      ],
      "matrix": [
        1,
        0,
        0,
        0,
        0,
        0,
        1,
        0,
        0,
        -1,
        0,
        0,
        0,
        0,
        0,
        1
      ],
      "name": "339edf2bc9d54b96baa897a109333341.fbx"
    },
    {
      "children": [
        4
      ],
      "name": "RootNode"
    },
    {
      "children": [
        5,
        6,
        7,
        8,
        9,
        10
      ],
      "matrix": [
        100,
        0,
        0,
        0,
        0,
        -1.6292067939183141e-05,
        -99.999999999998678,
        0,
        0,
        99.999999999998678,
        -1.6292067939183141e-05,
        0,
        0,
        0,
        0,
        1
      ],
      "name": "Torus"
    },
    {
      "mesh": 0,
      "name": "Torus__0"
    },
    {
      "mesh": 1,
      "name": "Torus__0"
    },
    {
      "mesh": 2,
      "name": "Torus__0"
    },
    {
      "mesh": 3,
      "name": "Torus__0"
    },
    {
      "mesh": 4,
      "name": "Torus__0"
    },
    {
      "mesh": 5,
      "name": "Torus__0"
    }
  ],
  "scene": 0,
  "scenes": [
    {
      "name": "OSG_Scene",
      "nodes": [
        0
      ]
    }
  ]
}

