{
  "accessors": [
    {
      "bufferView": 2,
      "componentType": 5126,
      "count": 65532,
      "max": [
        0.38467070460319519,
        1.032393217086792,
        0.30959358811378479
      ],
      "min": [
        -0.38213148713111877,
        -1.1100536584854126,
        -0.26235854625701904
      ],
      "type": "VEC3"
    },
    {
      "bufferView": 2,
      "byteOffset": 786384,
      "componentType": 5126,
      "count": 65532,
      "max": [
        0.99986952543258667,
        0.99998492002487183,
        0.99996626377105713
      ],
      "min": [
        -0.99991196393966675,
        -0.99998939037322998,
        -0.9998970627784729
      ],
      "type": "VEC3"
    },
    {
      "bufferView": 1,
      "componentType": 5126,
      "count": 65532,
      "max": [
        1.0000003576278687,
        1.0000003576278687
      ],
      "min": [
        -0.0048269643448293209,
        -0.0096539286896586418
      ],
      "type": "VEC2"
    },
    {
      "bufferView": 0,
      "componentType": 5125,
      "count": 328467,
      "max": [
        65531
      ],
      "min": [
        0
      ],
      "type": "SCALAR"
    },
    {
      "bufferView": 2,
      "byteOffset": 1572768,
      "componentType": 5126,
      "count": 65532,
      "max": [
        0.15524293482303619,
        1.0017764568328857,
        0.31088095903396606
      ],
      "min": [
        -1.0071640014648438,
        -1.0933587551116943,
        -0.23932747542858124
      ],
      "type": "VEC3"
    },
    {
      "bufferView": 2,
      "byteOffset": 2359152,
      "componentType": 5126,
      "count": 65532,
      "max": [
        0.99904930591583252,
        0.99433052539825439,
        0.99997532367706299
      ],
      "min": [
        -0.99974191188812256,
        -0.9999963641166687,
        -0.99995547533035278
      ],
      "type": "VEC3"
    },
    {
      "bufferView": 1,
      "byteOffset": 524256,
      "componentType": 5126,
      "count": 65532,
      "max": [
        1.0000003576278687,
        1.0000003576278687
      ],
      "min": [
        -0.0048269643448293209,
        -0.0096539286896586418
      ],
      "type": "VEC2"
    },
    {
      "bufferView": 0,
      "byteOffset": 1313868,
      "componentType": 5125,
      "count": 308484,
      "max": [
        65531
      ],
      "min": [
        0
      ],
      "type": "SCALAR"
    },
    {
      "bufferView": 2,
      "byteOffset": 3145536,
      "componentType": 5126,
      "count": 65532,
      "max": [
        -0.090028688311576843,
        0.37401801347732544,
        0.20356619358062744
      ],
      "min": [
        -1.0438284873962402,
        -1.0100046396255493,
        -0.16560545563697815
      ],
      "type": "VEC3"
    },
    {
      "bufferView": 2,
      "byteOffset": 3931920,
      "componentType": 5126,
      "count": 65532,
      "max": [
        0.99998700618743896,
        0.99991703033447266,
        0.99998319149017334
      ],
      "min": [
        -0.99999934434890747,
        -0.99950313568115234,
        -0.99997133016586304
      ],
      "type": "VEC3"
    },
    {
      "bufferView": 1,
      "byteOffset": 1048512,
      "componentType": 5126,
      "count": 65532,
      "max": [
        0.50000011920928955,
        0.70710963010787964
      ],
      "min": [
        0,
        0
      ],
      "type": "VEC2"
    },
    {
      "bufferView": 0,
      "byteOffset": 2547804,
      "componentType": 5125,
      "count": 310791,
      "max": [
        65531
      ],
      "min": [
        0
      ],
      "type": "SCALAR"
    },
    {
      "bufferView": 2,
      "byteOffset": 4718304,
      "componentType": 5126,
      "count": 65532,
      "max": [
        1.0289615392684937,
        -0.0017994719091802835,
        0.2395516037940979
      ],
      "min": [
        -0.29897081851959229,
        -1.0339211225509644,
        0.010991817340254784
      ],
      "type": "VEC3"
    },
    {
      "bufferView": 2,
      "byteOffset": 5504688,
      "componentType": 5126,
      "count": 65532,
      "max": [
        0.99993228912353516,
        0.99999266862869263,
        0.99990445375442505
      ],
      "min": [
        -0.99996495246887207,
        -0.99997210502624512,
        -0.99992477893829346
      ],
      "type": "VEC3"
    },
    {
      "bufferView": 1,
      "byteOffset": 1572768,
      "componentType": 5126,
      "count": 65532,
      "max": [
        0.50000011920928955,
        0.70710963010787964
      ],
      "min": [
        0,
        0
      ],
      "type": "VEC2"
    },
    {
      "bufferView": 0,
      "byteOffset": 3790968,
      "componentType": 5125,
      "count": 310707,
      "max": [
        65531
      ],
      "min": [
        0
      ],
      "type": "SCALAR"
    },
    {
      "bufferView": 2,
      "byteOffset": 6291072,
      "componentType": 5126,
      "count": 65532,
      "max": [
        1.0435384511947632,
        1.0060787200927734,
        0.15508224070072174
      ],
      "min": [
        -0.89946019649505615,
        -0.72985416650772095,
        -0.23567259311676025
      ],
      "type": "VEC3"
    },
    {
      "bufferView": 2,
      "byteOffset": 7077456,
      "componentType": 5126,
      "count": 65532,
      "max": [
        0.99995601177215576,
        0.99829518795013428,
        0.99999058246612549
      ],
      "min": [
        -0.99998128414154053,
        -0.99993854761123657,
        -0.9999968409538269
      ],
      "type": "VEC3"
    },
    {
      "bufferView": 1,
      "byteOffset": 2097024,
      "componentType": 5126,
      "count": 65532,
      "max": [
        1.0000003576278687,
        1.0000002384185791
      ],
      "min": [
        -1.6530975699424744e-08,
        -0.00032239677966572344
      ],
      "type": "VEC2"
    },
    {
      "bufferView": 0,
      "byteOffset": 5033796,
      "componentType": 5125,
      "count": 305388,
      "max": [
        65531
      ],
      "min": [
        0
      ],
      "type": "SCALAR"
    },
    {
      "bufferView": 2,
      "byteOffset": 7863840,
      "componentType": 5126,
      "count": 65532,
      "max": [
        -0.70075094699859619,
        -0.55406606197357178,
        0.20188328623771667
      ],
      "min": [
        -0.92246919870376587,
        -0.8072657585144043,
        -0.08522304892539978
      ],
      "type": "VEC3"
    },
    {
      "bufferView": 2,
      "byteOffset": 8650224,
      "componentType": 5126,
      "count": 65532,
      "max": [
        0.99998503923416138,
        0.99988776445388794,
        0.99978005886077881
      ],
      "min": [
        -0.99998098611831665,
        -0.99997842311859131,
        -0.99999940395355225
      ],
      "type": "VEC3"
    },
    {
      "bufferView": 1,
      "byteOffset": 2621280,
      "componentType": 5126,
      "count": 65532,
      "max": [
        1.0000003576278687,
        1.0000003576278687
      ],
      "min": [
        -0.0048269643448293209,
        -0.0096539286896586418
      ],
      "type": "VEC2"
    },
    {
      "bufferView": 0,
      "byteOffset": 6255348,
      "componentType": 5125,
      "count": 320607,
      "max": [
        65531
      ],
      "min": [
        0
      ],
      "type": "SCALAR"
    },
    {
      "bufferView": 2,
      "byteOffset": 9436608,
      "componentType": 5126,
      "count": 65532,
      "max": [
        0.91967487335205078,
        -0.53998070955276489,
        0.30128327012062073
      ],
      "min": [
        -0.82174694538116455,
        -0.80438107252120972,
        0.01060447096824646
      ],
      "type": "VEC3"
    },
    {
      "bufferView": 2,
      "byteOffset": 10222992,
      "componentType": 5126,
      "count": 65532,
      "max": [
        0.9999890923500061,
        0.99995899200439453,
        0.99996089935302734
      ],
      "min": [
        -0.99994879961013794,
        -0.99999403953552246,
        -0.99984210729598999
      ],
      "type": "VEC3"
    },
    {
      "bufferView": 1,
      "byteOffset": 3145536,
      "componentType": 5126,
      "count": 65532,
      "max": [
        1.0000003576278687,
        1.0000003576278687
      ],
      "min": [
        -0.0048269643448293209,
        -0.0096539286896586418
      ],
      "type": "VEC2"
    },
    {
      "bufferView": 0,
      "byteOffset": 7537776,
      "componentType": 5125,
      "count": 318366,
      "max": [
        65531
      ],
      "min": [
        0
      ],
      "type": "SCALAR"
    },
    {
      "bufferView": 2,
      "byteOffset": 11009376,
      "componentType": 5126,
      "count": 27577,
      "max": [
        0.92081665992736816,
        -0.54644578695297241,
        0.16718468070030212
      ],
      "min": [
        0.69874608516693115,
        -0.79584246873855591,
        0.013467852026224136
      ],
      "type": "VEC3"
    },
    {
      "bufferView": 2,
      "byteOffset": 11340300,
      "componentType": 5126,
      "count": 27577,
      "max": [
        0.99992358684539795,
        0.99995899200439453,
        0.99913406372070312
      ],
      "min": [
        -0.99997466802597046,
        -0.99999803304672241,
        -0.99987584352493286
      ],
      "type": "VEC3"
    },
    {
      "bufferView": 1,
      "byteOffset": 3669792,
      "componentType": 5126,
      "count": 27577,
      "max": [
        1.0000003576278687,
        1.0000003576278687
      ],
      "min": [
        -0.0048269643448293209,
        -0.0096539286896586418
      ],
      "type": "VEC2"
    },
    {
      "bufferView": 0,
      "byteOffset": 8811240,
      "componentType": 5125,
      "count": 133104,
      "max": [
        27576
      ],
      "min": [
        0
      ],
      "type": "SCALAR"
    },
    {
      "bufferView": 2,
      "byteOffset": 11671224,
      "componentType": 5126,
      "count": 1608,
      "max": [
        0.90814536809921265,
        -0.59420204162597656,
        0.27620446681976318
      ],
      "min": [
        -0.909961998462677,
        -1.1262598037719727,
        -0.051899030804634094
      ],
      "type": "VEC3"
    },
    {
      "bufferView": 2,
      "byteOffset": 11690520,
      "componentType": 5126,
      "count": 1608,
      "max": [
        0.99861663579940796,
        0.9920051097869873,
        0.98640984296798706
      ],
      "min": [
        -0.99868583679199219,
        -0.99857115745544434,
        -0.98641061782836914
      ],
      "type": "VEC3"
    },
    {
      "bufferView": 1,
      "byteOffset": 3890408,
      "componentType": 5126,
      "count": 1608,
      "max": [
        0,
        0
      ],
      "min": [
        0,
        0
      ],
      "type": "VEC2"
    },
    {
      "bufferView": 0,
      "byteOffset": 9343656,
      "componentType": 5125,
      "count": 1998,
      "max": [
        1607
      ],
      "min": [
        0
      ],
      "type": "SCALAR"
    },
    {
      "bufferView": 2,
      "byteOffset": 11709816,
      "componentType": 5126,
      "count": 648,
      "max": [
        0.90814536809921265,
        -0.597137451171875,
        0.27042704820632935
      ],
      "min": [
        -0.909961998462677,
        -1.1262598037719727,
        -0.047347191721200943
      ],
      "type": "VEC3"
    },
    {
      "bufferView": 2,
      "byteOffset": 11717592,
      "componentType": 5126,
      "count": 648,
      "max": [
        0.99612313508987427,
        0.97129487991333008,
        0.9534759521484375
      ],
      "min": [
        -0.99587970972061157,
        -0.99896073341369629,
        -0.95137870311737061
      ],
      "type": "VEC3"
    },
    {
      "bufferView": 1,
      "byteOffset": 3903272,
      "componentType": 5126,
      "count": 648,
      "max": [
        0,
        0
      ],
      "min": [
        0,
        0
      ],
      "type": "VEC2"
    },
    {
      "bufferView": 0,
      "byteOffset": 9351648,
      "componentType": 5125,
      "count": 648,
      "max": [
        647
      ],
      "min": [
        0
      ],
      "type": "SCALAR"
    },
    {
      "bufferView": 2,
      "byteOffset": 11725368,
      "componentType": 5126,
      "count": 65532,
      "max": [
        0.97217839956283569,
        0.96007078886032104,
        2.0291967391967773
      ],
      "min": [
        -1.0069942474365234,
        -0.96708256006240845,
        -1.004825234413147
      ],
      "type": "VEC3"
    },
    {
      "bufferView": 2,
      "byteOffset": 12511752,
      "componentType": 5126,
      "count": 65532,
      "max": [
        0.99999594688415527,
        0.99955332279205322,
        0.99999010562896729
      ],
      "min": [
        -0.99999880790710449,
        -0.99999666213989258,
        -0.9988132119178772
      ],
      "type": "VEC3"
    },
    {
      "bufferView": 1,
      "byteOffset": 3908456,
      "componentType": 5126,
      "count": 65532,
      "max": [
        1.0008634328842163,
        0.99234306812286377
      ],
      "min": [
        0.0045730341225862503,
        0.0036825540009886026
      ],
      "type": "VEC2"
    },
    {
      "bufferView": 0,
      "byteOffset": 9354240,
      "componentType": 5125,
      "count": 371118,
      "max": [
        65531
      ],
      "min": [
        0
      ],
      "type": "SCALAR"
    },
    {
      "bufferView": 2,
      "byteOffset": 13298136,
      "componentType": 5126,
      "count": 25995,
      "max": [
        0.90447956323623657,
        0.99259763956069946,
        2.0108017921447754
      ],
      "min": [
        -0.95691937208175659,
        -0.96708256006240845,
        -1.0048251152038574
      ],
      "type": "VEC3"
    },
    {
      "bufferView": 2,
      "byteOffset": 13610076,
      "componentType": 5126,
      "count": 25995,
      "max": [
        0.99840855598449707,
        0.99998033046722412,
        0.99996781349182129
      ],
      "min": [
        -0.99566972255706787,
        -0.99999535083770752,
        -0.93716889619827271
      ],
      "type": "VEC3"
    },
    {
      "bufferView": 1,
      "byteOffset": 4432712,
      "componentType": 5126,
      "count": 25995,
      "max": [
        1.0008634328842163,
        0.99234306812286377
      ],
      "min": [
        0.0045730341225862503,
        0.0048117944970726967
      ],
      "type": "VEC2"
    },
    {
      "bufferView": 0,
      "byteOffset": 10838712,
      "componentType": 5125,
      "count": 143826,
      "max": [
        25994
      ],
      "min": [
        0
      ],
      "type": "SCALAR"
    }
  ],
  "asset": {
    "extras": {
      "author": "TimofyeyevAlexandr (https://sketchfab.com/timofyeyevsasha)",
      "license": "CC-BY-4.0 (http://creativecommons.org/licenses/by/4.0/)",
      "source": "https://sketchfab.com/3d-models/swiss-blue-topaz-woven-cuff-bracelet-3751c62f69614a929a54f8bd174c0d92",
      "title": "Swiss Blue Topaz Woven Cuff Bracelet"
    },
    "generator": "Sketchfab-7.75.0",
    "version": "2.0"
  },
  "bufferViews": [
    {
      "buffer": 0,
      "byteLength": 11414016,
      "byteOffset": 0,
      "name": "floatBufferViews",
      "target": 34963
    },
    {
      "buffer": 0,
      "byteLength": 4640672,
      "byteOffset": 11414016,
      "byteStride": 8,
      "name": "floatBufferViews",
      "target": 34962
    },
    {
      "buffer": 0,
      "byteLength": 13922016,
      "byteOffset": 16054688,
      "byteStride": 12,
      "name": "floatBufferViews",
      "target": 34962
    }
  ],
  "buffers": [
    {
      "byteLength": 29976704,
      "uri": "scene.bin"
    }
  ],
  "materials": [
    {
      "doubleSided": true,
      "name": "metal_gold.000",
      "pbrMetallicRoughness": {
        "baseColorFactor": [
          0.78366000000000002,
          0.66786800000000002,
          0.184418,
          1
        ],
        "metallicFactor": 0.75,
        "roughnessFactor": 0.15000000000000002
      }
    },
    {
      "alphaMode": "BLEND",
      "doubleSided": true,
      "emissiveFactor": [
        0,
        0.044003674885416198,
        0.083076999999999901
      ],
      "name": "Dd_out.001",
      "pbrMetallicRoughness": {
        "baseColorFactor": [
          0.041649308584883735,
          0.44835084338773928,
          0.69126721648096567,
          0.19092610987221323
        ],
        "metallicFactor": 0,
        "roughnessFactor": 0
      }
    },
    {
      "alphaMode": "BLEND",
      "doubleSided": true,
      "emissiveFactor": [
        0,
        0.12846741020836125,
        0.14999999999999999
      ],
      "name": "Dd_in",
      "pbrMetallicRoughness": {
        "baseColorFactor": [
          0.00068476627071395457,
          0.099268782636597122,
          0.57342273167242797,
          0.53238952450635957
        ],
        "metallicFactor": 0.94999999999999996,
        "roughnessFactor": 0
      }
    },
    {
      "doubleSided": true,
      "name": "Crushed_Velvet",
      "pbrMetallicRoughness": {
        "baseColorFactor": [
          0.53703074791378513,
          0.53703074791378513,
          0.53703074791378513,
          1
        ],
        "metallicFactor": 0,
        "roughnessFactor": 0.99200071939607948
      }
    }
  ],
  "meshes": [
    {
      "name": "export|00_legs|Dupli|5_metal_gold.000_0",
      "primitives": [
        {
          "attributes": {
            "NORMAL": 1,
            "POSITION": 0,
            "TEXCOORD_0": 2
          },
          "indices": 3,
          "material": 0,
          "mode": 4
        }
      ]
    },
    {
      "name": "export|00_legs|Dupli|5_metal_gold.000_0",
      "primitives": [
        {
          "attributes": {
            "NORMAL": 5,
            "POSITION": 4,
            "TEXCOORD_0": 6
          },
          "indices": 7,
          "material": 0,
          "mode": 4
        }
      ]
    },
    {
      "name": "export|00_legs|Dupli|5_metal_gold.000_0",
      "primitives": [
        {
          "attributes": {
            "NORMAL": 9,
            "POSITION": 8,
            "TEXCOORD_0": 10
          },
          "indices": 11,
          "material": 0,
          "mode": 4
        }
      ]
    },
    {
      "name": "export|00_legs|Dupli|5_metal_gold.000_0",
      "primitives": [
        {
          "attributes": {
            "NORMAL": 13,
            "POSITION": 12,
            "TEXCOORD_0": 14
          },
          "indices": 15,
          "material": 0,
          "mode": 4
        }
      ]
    },
    {
      "name": "export|00_legs|Dupli|5_metal_gold.000_0",
      "primitives": [
        {
          "attributes": {
            "NORMAL": 17,
            "POSITION": 16,
            "TEXCOORD_0": 18
          },
          "indices": 19,
          "material": 0,
          "mode": 4
        }
      ]
    },
    {
      "name": "export|00_legs|Dupli|5_metal_gold.000_0",
      "primitives": [
        {
          "attributes": {
            "NORMAL": 21,
            "POSITION": 20,
            "TEXCOORD_0": 22
          },
          "indices": 23,
          "material": 0,
          "mode": 4
        }
      ]
    },
    {
      "name": "export|00_legs|Dupli|5_metal_gold.000_0",
      "primitives": [
        {
          "attributes": {
            "NORMAL": 25,
            "POSITION": 24,
            "TEXCOORD_0": 26
          },
          "indices": 27,
          "material": 0,
          "mode": 4
        }
      ]
    },
    {
      "name": "export|00_legs|Dupli|5_metal_gold.000_0",
      "primitives": [
        {
          "attributes": {
            "NORMAL": 29,
            "POSITION": 28,
            "TEXCOORD_0": 30
          },
          "indices": 31,
          "material": 0,
          "mode": 4
        }
      ]
    },
    {
      "name": "export|00_legs|Dupli|5.001_Dd_out.001_0",
      "primitives": [
        {
          "attributes": {
            "NORMAL": 33,
            "POSITION": 32,
            "TEXCOORD_0": 34
          },
          "indices": 35,
          "material": 1,
          "mode": 4
        }
      ]
    },
    {
      "name": "export|00_legs|Dupli|5.001_Dd_in_0",
      "primitives": [
        {
          "attributes": {
            "NORMAL": 37,
            "POSITION": 36,
            "TEXCOORD_0": 38
          },
          "indices": 39,
          "material": 2,
          "mode": 4
        }
      ]
    },
    {
      "name": "Cube.000_Crushed Velvet_0",
      "primitives": [
        {
          "attributes": {
            "NORMAL": 41,
            "POSITION": 40,
            "TEXCOORD_0": 42
          },
          "indices": 43,
          "material": 3,
          "mode": 4
        }
      ]
    },
    {
      "name": "Cube.000_Crushed Velvet_0",
      "primitives": [
        {
          "attributes": {
            "NORMAL": 45,
            "POSITION": 44,
            "TEXCOORD_0": 46
          },
          "indices": 47,
          "material": 3,
          "mode": 4
        }
      ]
    }
  ],
  "nodes": [
    {
      "children": [
        1
      ],
      "name": "RootNode (gltf orientation matrix)",
      "rotation": [
        -0.70710678118654746,
        -0,
        -0,
        0.70710678118654757
      ]
    },
    {
      "children": [
        2
      ],
      "matrix": [
        0.99954324960708618,
        1.0842021724855044e-19,
        -0.030220730230212212,
        0,
        0.0014364020898938179,
        0.99886977672576904,
        0.047508645802736282,
        0,
        0.030186574906110764,
        -0.047530356794595718,
        0.9984135627746582,
        0,
        -0.71382027864456177,
        1.1769554615020752,
        -18.959770202636719,
        1
      ],
      "name": "RootNode (model correction matrix)"
    },
    {
      "children": [
        3
      ],
      "matrix": [
        1,
        0,
        0,
        0,
        0,
        0,
        1,
        0,
        0,
        -1,
        0,
        0,
        0,
        0,
        0,
        1
      ],
      "name": "14222dc6eeb142198ac780df86676f50.fbx"
    },
    {
      "children": [
        4,
        13,
        16
      ],
      "name": "RootNode"
    },
    {
      "children": [
        5,
        6,
        7,
        8,
        9,
        10,
        11,
        12
      ],
      "matrix": [
        99.999999307723584,
        -0.011766662619397713,
        -3.0530225103574826e-05,
        0,
        0.00083754519382481913,
        7.3767070710819116,
        -99.727549814913075,
        0,
        0.011736856450586641,
        99.727549124267071,
        7.3767071185658288,
        0,
        0,
        16.805387496948242,
        -4.9357786178588867,
        1
      ],
      "name": "export|00_legs|Dupli|5"
    },
    {
      "mesh": 0,
      "name": "export|00_legs|Dupli|5_metal_gold.000_0"
    },
    {
      "mesh": 1,
      "name": "export|00_legs|Dupli|5_metal_gold.000_0"
    },
    {
      "mesh": 2,
      "name": "export|00_legs|Dupli|5_metal_gold.000_0"
    },
    {
      "mesh": 3,
      "name": "export|00_legs|Dupli|5_metal_gold.000_0"
    },
    {
      "mesh": 4,
      "name": "export|00_legs|Dupli|5_metal_gold.000_0"
    },
    {
      "mesh": 5,
      "name": "export|00_legs|Dupli|5_metal_gold.000_0"
    },
    {
      "mesh": 6,
      "name": "export|00_legs|Dupli|5_metal_gold.000_0"
    },
    {
      "mesh": 7,
      "name": "export|00_legs|Dupli|5_metal_gold.000_0"
    },
    {
      "children": [
        14,
        15
      ],
      "matrix": [
        99.999999307723584,
        -0.011766662619397713,
        -3.0530225103574826e-05,
        0,
        0.00083754519382481913,
        7.3767070710819116,
        -99.727549814913075,
        0,
        0.011736856450586641,
        99.727549124267071,
        7.3767071185658288,
        0,
        0,
        16.805387496948242,
        -4.9357786178588867,
        1
      ],
      "name": "export|00_legs|Dupli|5.001"
    },
    {
      "mesh": 8,
      "name": "export|00_legs|Dupli|5.001_Dd_out.001_0"
    },
    {
      "mesh": 9,
      "name": "export|00_legs|Dupli|5.001_Dd_in_0"
    },
    {
      "children": [
        17,
        18
      ],
      "matrix": [
        126.24288940429688,
        0,
        0,
        0,
        0,
        -2.0567577310135882e-05,
        -126.24288940429521,
        0,
        0,
        25.861120223998682,
        -4.2133112767277519e-06,
        0,
        0,
        -25.039152145385742,
        0,
        1
      ],
      "name": "Cube.000"
    },
    {
      "mesh": 10,
      "name": "Cube.000_Crushed Velvet_0"
    },
    {
      "mesh": 11,
      "name": "Cube.000_Crushed Velvet_0"
    }
  ],
  "scene": 0,
  "scenes": [
    {
      "name": "OSG_Scene",
      "nodes": [
        0
      ]
    }
  ]
}

