{
    "asset" : {
        "generator" : "Khronos glTF Blender I/O v1.2.75",
        "version" : "2.0"
    },
    "scene" : 0,
    "scenes" : [
        {
            "name" : "Scene",
            "nodes" : [
                0,
                1,
                2,
                3,
                4,
                5,
                6,
                7,
                8
            ]
        }
    ],
    "nodes" : [
        {
            "name" : "Light",
            "rotation" : [
                0.16907575726509094,
                0.7558803558349609,
                -0.27217137813568115,
                0.570947527885437
            ],
            "translation" : [
                4.076245307922363,
                6.2370285987854,
                11.5941162109375
            ]
        },
        {
            "name" : "Camera",
            "rotation" : [
                0.5267971754074097,
                0.1454036831855774,
                -0.29184094071388245,
                0.7849658727645874
            ],
            "scale" : [
                1.1738497018814087,
                1.1738494634628296,
                1.1738494634628296
            ],
            "translation" : [
                9.7154541015625,
                2.4942197799682617,
                15.134809494018555
            ]
        },
        {
            "mesh" : 0,
            "name" : "Sofa",
            "scale" : [
                5.963689804077148,
                0.17314325273036957,
                8
            ]
        },
        {
            "mesh" : 1,
            "name" : "SideTable01",
            "scale" : [
                5.963689804077148,
                0.17314325273036957,
                8
            ]
        },
        {
            "mesh" : 2,
            "name" : "SideTable02",
            "scale" : [
                5.963689804077148,
                0.17314325273036957,
                8
            ]
        },
        {
            "mesh" : 3,
            "name" : "Carpet",
            "scale" : [
                5.963689804077148,
                0.17314325273036957,
                8
            ]
        },
        {
            "mesh" : 4,
            "name" : "Cube",
            "scale" : [
                5.963689804077148,
                0.17314325273036957,
                8
            ]
        },
        {
            "mesh" : 5,
            "name" : "Fridge",
            "scale" : [
                5.963689804077148,
                0.17314325273036957,
                8
            ]
        },
        {
            "mesh" : 6,
            "name" : "ElevationCylinders",
            "rotation" : [
                0,
                0.6974446177482605,
                0,
                0.7166386842727661
            ],
            "scale" : [
                5.963689804077148,
                0.17314325273036957,
                8
            ],
            "translation" : [
                -9.04267692565918,
                0.12151917815208435,
                1.1670734882354736
            ]
        }
    ],
    "materials" : [
        {
            "doubleSided" : true,
            "emissiveFactor" : [
                0,
                0,
                0
            ],
            "name" : "Material",
            "pbrMetallicRoughness" : {
                "baseColorTexture" : {
                    "index" : 0,
                    "texCoord" : 0
                },
                "metallicFactor" : 0,
                "roughnessFactor" : 1
            }
        }
    ],
    "meshes" : [
        {
            "name" : "Cube.001",
            "primitives" : [
                {
                    "attributes" : {
                        "POSITION" : 0,
                        "NORMAL" : 1,
                        "TEXCOORD_0" : 2
                    },
                    "indices" : 3,
                    "material" : 0
                }
            ]
        },
        {
            "name" : "Cube.002",
            "primitives" : [
                {
                    "attributes" : {
                        "POSITION" : 4,
                        "NORMAL" : 5,
                        "TEXCOORD_0" : 6
                    },
                    "indices" : 7,
                    "material" : 0
                }
            ]
        },
        {
            "name" : "Cube.003",
            "primitives" : [
                {
                    "attributes" : {
                        "POSITION" : 8,
                        "NORMAL" : 9,
                        "TEXCOORD_0" : 10
                    },
                    "indices" : 11,
                    "material" : 0
                }
            ]
        },
        {
            "name" : "Cube.004",
            "primitives" : [
                {
                    "attributes" : {
                        "POSITION" : 12,
                        "NORMAL" : 13,
                        "TEXCOORD_0" : 14
                    },
                    "indices" : 15,
                    "material" : 0
                }
            ]
        },
        {
            "name" : "Cube.005",
            "primitives" : [
                {
                    "attributes" : {
                        "POSITION" : 16,
                        "NORMAL" : 17,
                        "TEXCOORD_0" : 18
                    },
                    "indices" : 19,
                    "material" : 0
                }
            ]
        },
        {
            "name" : "Cube.006",
            "primitives" : [
                {
                    "attributes" : {
                        "POSITION" : 20,
                        "NORMAL" : 21,
                        "TEXCOORD_0" : 22
                    },
                    "indices" : 23,
                    "material" : 0
                }
            ]
        },
        {
            "name" : "Cube.008",
            "primitives" : [
                {
                    "attributes" : {
                        "POSITION" : 24,
                        "NORMAL" : 25,
                        "TEXCOORD_0" : 26
                    },
                    "indices" : 27,
                    "material" : 0
                }
            ]
        }
    ],
    "textures" : [
        {
            "sampler" : 0,
            "source" : 0
        }
    ],
    "images" : [
        {
            "bufferView" : 4,
            "mimeType" : "image/png",
            "name" : "color_palette"
        }
    ],
    "accessors" : [
        {
            "bufferView" : 0,
            "componentType" : 5126,
            "count" : 150,
            "max" : [
                -0.27238133549690247,
                7.207113265991211,
                0.9415535926818848
            ],
            "min" : [
                -0.6943814158439636,
                2.6227197647094727,
                0.7798863053321838
            ],
            "type" : "VEC3"
        },
        {
            "bufferView" : 1,
            "componentType" : 5126,
            "count" : 150,
            "type" : "VEC3"
        },
        {
            "bufferView" : 2,
            "componentType" : 5126,
            "count" : 150,
            "type" : "VEC2"
        },
        {
            "bufferView" : 3,
            "componentType" : 5123,
            "count" : 282,
            "type" : "SCALAR"
        },
        {
            "bufferView" : 5,
            "componentType" : 5126,
            "count" : 160,
            "max" : [
                -0.08886003494262695,
                3.055368423461914,
                0.9436705708503723
            ],
            "min" : [
                -0.2584828734397888,
                1.0139002799987793,
                0.8178713321685791
            ],
            "type" : "VEC3"
        },
        {
            "bufferView" : 6,
            "componentType" : 5126,
            "count" : 160,
            "type" : "VEC3"
        },
        {
            "bufferView" : 7,
            "componentType" : 5126,
            "count" : 160,
            "type" : "VEC2"
        },
        {
            "bufferView" : 8,
            "componentType" : 5123,
            "count" : 300,
            "type" : "SCALAR"
        },
        {
            "bufferView" : 9,
            "componentType" : 5126,
            "count" : 160,
            "max" : [
                -0.7347744703292847,
                3.0057897567749023,
                0.947351336479187
            ],
            "min" : [
                -0.9043973088264465,
                1.0139002799987793,
                0.8215521574020386
            ],
            "type" : "VEC3"
        },
        {
            "bufferView" : 10,
            "componentType" : 5126,
            "count" : 160,
            "type" : "VEC3"
        },
        {
            "bufferView" : 11,
            "componentType" : 5126,
            "count" : 160,
            "type" : "VEC2"
        },
        {
            "bufferView" : 12,
            "componentType" : 5123,
            "count" : 300,
            "type" : "SCALAR"
        },
        {
            "bufferView" : 13,
            "componentType" : 5126,
            "count" : 6,
            "max" : [
                -0.14001891016960144,
                1.0450042486190796,
                0.8853857517242432
            ],
            "min" : [
                -0.8408905267715454,
                1.0450042486190796,
                0.3971063792705536
            ],
            "type" : "VEC3"
        },
        {
            "bufferView" : 14,
            "componentType" : 5126,
            "count" : 6,
            "type" : "VEC3"
        },
        {
            "bufferView" : 15,
            "componentType" : 5126,
            "count" : 6,
            "type" : "VEC2"
        },
        {
            "bufferView" : 16,
            "componentType" : 5123,
            "count" : 12,
            "type" : "SCALAR"
        },
        {
            "bufferView" : 17,
            "componentType" : 5126,
            "count" : 4465,
            "max" : [
                1.2878270149230957,
                24.102258682250977,
                1.197005033493042
            ],
            "min" : [
                -1.2768990993499756,
                -4.011233329772949,
                -1.1623060703277588
            ],
            "type" : "VEC3"
        },
        {
            "bufferView" : 18,
            "componentType" : 5126,
            "count" : 4465,
            "type" : "VEC3"
        },
        {
            "bufferView" : 19,
            "componentType" : 5126,
            "count" : 4465,
            "type" : "VEC2"
        },
        {
            "bufferView" : 20,
            "componentType" : 5123,
            "count" : 10038,
            "type" : "SCALAR"
        },
        {
            "bufferView" : 21,
            "componentType" : 5126,
            "count" : 76,
            "max" : [
                0.9706745743751526,
                19.808195114135742,
                0.6412432193756104
            ],
            "min" : [
                0.7899777889251709,
                1,
                0.4868629574775696
            ],
            "type" : "VEC3"
        },
        {
            "bufferView" : 22,
            "componentType" : 5126,
            "count" : 76,
            "type" : "VEC3"
        },
        {
            "bufferView" : 23,
            "componentType" : 5126,
            "count" : 76,
            "type" : "VEC2"
        },
        {
            "bufferView" : 24,
            "componentType" : 5123,
            "count" : 132,
            "type" : "SCALAR"
        },
        {
            "bufferView" : 25,
            "componentType" : 5126,
            "count" : 1536,
            "max" : [
                -0.22731435298919678,
                9.023335456848145,
                0.3815138339996338
            ],
            "min" : [
                -1.0683622360229492,
                -2.527794122695923,
                0.34676849842071533
            ],
            "type" : "VEC3"
        },
        {
            "bufferView" : 26,
            "componentType" : 5126,
            "count" : 1536,
            "type" : "VEC3"
        },
        {
            "bufferView" : 27,
            "componentType" : 5126,
            "count" : 1536,
            "type" : "VEC2"
        },
        {
            "bufferView" : 28,
            "componentType" : 5123,
            "count" : 2976,
            "type" : "SCALAR"
        }
    ],
    "bufferViews" : [
        {
            "buffer" : 0,
            "byteLength" : 1800,
            "byteOffset" : 0
        },
        {
            "buffer" : 0,
            "byteLength" : 1800,
            "byteOffset" : 1800
        },
        {
            "buffer" : 0,
            "byteLength" : 1200,
            "byteOffset" : 3600
        },
        {
            "buffer" : 0,
            "byteLength" : 564,
            "byteOffset" : 4800
        },
        {
            "buffer" : 0,
            "byteLength" : 268,
            "byteOffset" : 5364
        },
        {
            "buffer" : 0,
            "byteLength" : 1920,
            "byteOffset" : 5632
        },
        {
            "buffer" : 0,
            "byteLength" : 1920,
            "byteOffset" : 7552
        },
        {
            "buffer" : 0,
            "byteLength" : 1280,
            "byteOffset" : 9472
        },
        {
            "buffer" : 0,
            "byteLength" : 600,
            "byteOffset" : 10752
        },
        {
            "buffer" : 0,
            "byteLength" : 1920,
            "byteOffset" : 11352
        },
        {
            "buffer" : 0,
            "byteLength" : 1920,
            "byteOffset" : 13272
        },
        {
            "buffer" : 0,
            "byteLength" : 1280,
            "byteOffset" : 15192
        },
        {
            "buffer" : 0,
            "byteLength" : 600,
            "byteOffset" : 16472
        },
        {
            "buffer" : 0,
            "byteLength" : 72,
            "byteOffset" : 17072
        },
        {
            "buffer" : 0,
            "byteLength" : 72,
            "byteOffset" : 17144
        },
        {
            "buffer" : 0,
            "byteLength" : 48,
            "byteOffset" : 17216
        },
        {
            "buffer" : 0,
            "byteLength" : 24,
            "byteOffset" : 17264
        },
        {
            "buffer" : 0,
            "byteLength" : 53580,
            "byteOffset" : 17288
        },
        {
            "buffer" : 0,
            "byteLength" : 53580,
            "byteOffset" : 70868
        },
        {
            "buffer" : 0,
            "byteLength" : 35720,
            "byteOffset" : 124448
        },
        {
            "buffer" : 0,
            "byteLength" : 20076,
            "byteOffset" : 160168
        },
        {
            "buffer" : 0,
            "byteLength" : 912,
            "byteOffset" : 180244
        },
        {
            "buffer" : 0,
            "byteLength" : 912,
            "byteOffset" : 181156
        },
        {
            "buffer" : 0,
            "byteLength" : 608,
            "byteOffset" : 182068
        },
        {
            "buffer" : 0,
            "byteLength" : 264,
            "byteOffset" : 182676
        },
        {
            "buffer" : 0,
            "byteLength" : 18432,
            "byteOffset" : 182940
        },
        {
            "buffer" : 0,
            "byteLength" : 18432,
            "byteOffset" : 201372
        },
        {
            "buffer" : 0,
            "byteLength" : 12288,
            "byteOffset" : 219804
        },
        {
            "buffer" : 0,
            "byteLength" : 5952,
            "byteOffset" : 232092
        }
    ],
    "samplers" : [
        {
            "magFilter" : 9728,
            "minFilter" : 9984
        }
    ],
    "buffers" : [
        {
            "byteLength" : 238044,
            "uri" : "data:application/octet-stream;base64,"
        }
    ]
}
