{
    "asset" : {
        "generator" : "Khronos glTF Blender I/O v1.2.75",
        "version" : "2.0"
    },
    "scene" : 0,
    "scenes" : [
        {
            "name" : "Scene",
            "nodes" : [
                0,
                1,
                2,
                3,
                4,
                5
            ]
        }
    ],
    "nodes" : [
        {
            "mesh" : 0,
            "name" : "Cube",
            "rotation" : [
                0.7071067690849304,
                0,
                0,
                0.7071067690849304
            ],
            "scale" : [
                3.8198537826538086,
                0.13946855068206787,
                2
            ],
            "translation" : [
                0,
                2.0903422832489014,
                0
            ]
        },
        {
            "name" : "Light",
            "rotation" : [
                0.16907575726509094,
                0.7558803558349609,
                -0.27217137813568115,
                0.570947527885437
            ],
            "translation" : [
                4.076245307922363,
                5.903861999511719,
                -1.0054539442062378
            ]
        },
        {
            "name" : "Camera",
            "rotation" : [
                0.483536034822464,
                0.33687159419059753,
                -0.20870360732078552,
                0.7804827094078064
            ],
            "translation" : [
                7.358891487121582,
                4.958309173583984,
                6.925790786743164
            ]
        },
        {
            "mesh" : 1,
            "name" : "Text",
            "rotation" : [
                0.7071067690849304,
                0,
                0,
                0.7071067690849304
            ],
            "scale" : [
                0.9222528338432312,
                0.9222528338432312,
                0.9222528338432312
            ],
            "translation" : [
                -3.0375287532806396,
                2.9885363578796387,
                0.27184924483299255
            ]
        },
        {
            "mesh" : 2,
            "name" : "Text.001",
            "rotation" : [
                0.7071067690849304,
                0,
                0,
                0.7071067690849304
            ],
            "scale" : [
                0.4848305583000183,
                0.4848305583000183,
                0.4848305583000183
            ],
            "translation" : [
                -2.9710617065429688,
                1.0451711416244507,
                0.29461756348609924
            ]
        },
        {
            "mesh" : 3,
            "name" : "Text.002",
            "rotation" : [
                0.7071067690849304,
                0,
                0,
                0.7071067690849304
            ],
            "scale" : [
                0.5141329169273376,
                0.5141329169273376,
                0.5141329169273376
            ],
            "translation" : [
                -2.9885365962982178,
                2.2373194694519043,
                0.2948947846889496
            ]
        }
    ],
    "materials" : [
        {
            "doubleSided" : true,
            "emissiveFactor" : [
                0,
                0,
                0
            ],
            "name" : "slate.001",
            "pbrMetallicRoughness" : {
                "baseColorFactor" : [
                    0.032680872827768326,
                    0.8000000715255737,
                    0.030174877494573593,
                    1
                ],
                "metallicFactor" : 0,
                "roughnessFactor" : 0.5
            }
        },
        {
            "doubleSided" : true,
            "emissiveFactor" : [
                0,
                0,
                0
            ],
            "name" : "property_name",
            "pbrMetallicRoughness" : {
                "baseColorFactor" : [
                    0.006001325324177742,
                    0.00334549299441278,
                    0.8000000715255737,
                    1
                ],
                "metallicFactor" : 0,
                "roughnessFactor" : 0.5
            }
        },
        {
            "doubleSided" : true,
            "emissiveFactor" : [
                0,
                0,
                0
            ],
            "name" : "details",
            "pbrMetallicRoughness" : {
                "baseColorFactor" : [
                    0,
                    0,
                    0,
                    1
                ],
                "metallicFactor" : 0,
                "roughnessFactor" : 0.5
            }
        },
        {
            "doubleSided" : true,
            "emissiveFactor" : [
                0,
                0,
                0
            ],
            "name" : "address",
            "pbrMetallicRoughness" : {
                "baseColorFactor" : [
                    0.046962618827819824,
                    0.046962618827819824,
                    0.046962618827819824,
                    1
                ],
                "metallicFactor" : 0,
                "roughnessFactor" : 0.5
            }
        }
    ],
    "meshes" : [
        {
            "name" : "Cube",
            "primitives" : [
                {
                    "attributes" : {
                        "POSITION" : 0,
                        "NORMAL" : 1,
                        "TEXCOORD_0" : 2
                    },
                    "indices" : 3,
                    "material" : 0
                }
            ]
        },
        {
            "name" : "Text",
            "primitives" : [
                {
                    "attributes" : {
                        "POSITION" : 4,
                        "NORMAL" : 5,
                        "TEXCOORD_0" : 6
                    },
                    "indices" : 7,
                    "material" : 1
                }
            ]
        },
        {
            "name" : "Text.001",
            "primitives" : [
                {
                    "attributes" : {
                        "POSITION" : 8,
                        "NORMAL" : 9,
                        "TEXCOORD_0" : 10
                    },
                    "indices" : 11,
                    "material" : 2
                }
            ]
        },
        {
            "name" : "Text.002",
            "primitives" : [
                {
                    "attributes" : {
                        "POSITION" : 12,
                        "NORMAL" : 13,
                        "TEXCOORD_0" : 14
                    },
                    "indices" : 15,
                    "material" : 3
                }
            ]
        }
    ],
    "accessors" : [
        {
            "bufferView" : 0,
            "componentType" : 5126,
            "count" : 174,
            "max" : [
                1,
                1.9493942260742188,
                1
            ],
            "min" : [
                -1,
                -1,
                -1
            ],
            "type" : "VEC3"
        },
        {
            "bufferView" : 1,
            "componentType" : 5126,
            "count" : 174,
            "type" : "VEC3"
        },
        {
            "bufferView" : 2,
            "componentType" : 5126,
            "count" : 174,
            "type" : "VEC2"
        },
        {
            "bufferView" : 3,
            "componentType" : 5123,
            "count" : 276,
            "type" : "SCALAR"
        },
        {
            "bufferView" : 4,
            "componentType" : 5126,
            "count" : 2196,
            "max" : [
                5.535000324249268,
                0.20000000298023224,
                0.23000000417232513
            ],
            "min" : [
                0.017000000923871994,
                -0.20000000298023224,
                -0.6910000443458557
            ],
            "type" : "VEC3"
        },
        {
            "bufferView" : 5,
            "componentType" : 5126,
            "count" : 2196,
            "type" : "VEC3"
        },
        {
            "bufferView" : 6,
            "componentType" : 5126,
            "count" : 2196,
            "type" : "VEC2"
        },
        {
            "bufferView" : 7,
            "componentType" : 5123,
            "count" : 5580,
            "type" : "SCALAR"
        },
        {
            "bufferView" : 8,
            "componentType" : 5126,
            "count" : 11483,
            "max" : [
                12.479000091552734,
                0.20000000298023224,
                1.2300000190734863
            ],
            "min" : [
                0.03400000184774399,
                -0.20000000298023224,
                -0.6910000443458557
            ],
            "type" : "VEC3"
        },
        {
            "bufferView" : 9,
            "componentType" : 5126,
            "count" : 11483,
            "type" : "VEC3"
        },
        {
            "bufferView" : 10,
            "componentType" : 5126,
            "count" : 11483,
            "type" : "VEC2"
        },
        {
            "bufferView" : 11,
            "componentType" : 5123,
            "count" : 28956,
            "type" : "SCALAR"
        },
        {
            "bufferView" : 12,
            "componentType" : 5126,
            "count" : 13081,
            "max" : [
                10.050000190734863,
                0.20000000298023224,
                1.1180000305175781
            ],
            "min" : [
                0.03400000184774399,
                -0.20000000298023224,
                -0.6910000443458557
            ],
            "type" : "VEC3"
        },
        {
            "bufferView" : 13,
            "componentType" : 5126,
            "count" : 13081,
            "type" : "VEC3"
        },
        {
            "bufferView" : 14,
            "componentType" : 5126,
            "count" : 13081,
            "type" : "VEC2"
        },
        {
            "bufferView" : 15,
            "componentType" : 5123,
            "count" : 33300,
            "type" : "SCALAR"
        }
    ],
    "bufferViews" : [
        {
            "buffer" : 0,
            "byteLength" : 2088,
            "byteOffset" : 0
        },
        {
            "buffer" : 0,
            "byteLength" : 2088,
            "byteOffset" : 2088
        },
        {
            "buffer" : 0,
            "byteLength" : 1392,
            "byteOffset" : 4176
        },
        {
            "buffer" : 0,
            "byteLength" : 552,
            "byteOffset" : 5568
        },
        {
            "buffer" : 0,
            "byteLength" : 26352,
            "byteOffset" : 6120
        },
        {
            "buffer" : 0,
            "byteLength" : 26352,
            "byteOffset" : 32472
        },
        {
            "buffer" : 0,
            "byteLength" : 17568,
            "byteOffset" : 58824
        },
        {
            "buffer" : 0,
            "byteLength" : 11160,
            "byteOffset" : 76392
        },
        {
            "buffer" : 0,
            "byteLength" : 137796,
            "byteOffset" : 87552
        },
        {
            "buffer" : 0,
            "byteLength" : 137796,
            "byteOffset" : 225348
        },
        {
            "buffer" : 0,
            "byteLength" : 91864,
            "byteOffset" : 363144
        },
        {
            "buffer" : 0,
            "byteLength" : 57912,
            "byteOffset" : 455008
        },
        {
            "buffer" : 0,
            "byteLength" : 156972,
            "byteOffset" : 512920
        },
        {
            "buffer" : 0,
            "byteLength" : 156972,
            "byteOffset" : 669892
        },
        {
            "buffer" : 0,
            "byteLength" : 104648,
            "byteOffset" : 826864
        },
        {
            "buffer" : 0,
            "byteLength" : 66600,
            "byteOffset" : 931512
        }
    ],
    "buffers" : [
        {
            "byteLength" : 998112,
            "uri" : "data:application/octet-stream;base64,"
        }
    ]
}
