{
    "asset" : {
        "generator" : "Khronos glTF Blender I/O v1.2.75",
        "version" : "2.0"
    },
    "scene" : 0,
    "scenes" : [
        {
            "name" : "Scene",
            "nodes" : [
                0,
                1,
                2,
                3,
                4,
                5,
                6
            ]
        }
    ],
    "nodes" : [
        {
            "mesh" : 0,
            "name" : "Cube",
            "scale" : [
                4.580199241638184,
                0.2518947124481201,
                4.20158052444458
            ]
        },
        {
            "name" : "Light",
            "rotation" : [
                0.16907575726509094,
                0.7558803558349609,
                -0.27217137813568115,
                0.570947527885437
            ],
            "translation" : [
                4.076245307922363,
                5.903861999511719,
                -1.0054539442062378
            ]
        },
        {
            "name" : "Camera",
            "rotation" : [
                0.483536034822464,
                0.33687159419059753,
                -0.20870360732078552,
                0.7804827094078064
            ],
            "translation" : [
                7.358891487121582,
                4.958309173583984,
                6.925790786743164
            ]
        },
        {
            "mesh" : 1,
            "name" : "Torus",
            "rotation" : [
                0,
                0,
                0.7072800397872925,
                0.7069334983825684
            ],
            "scale" : [
                1,
                2.2061660289764404,
                1
            ],
            "translation" : [
                -1.3155605792999268,
                1.4226298332214355,
                0
            ]
        },
        {
            "mesh" : 2,
            "name" : "Cube.001",
            "translation" : [
                1.6946754455566406,
                1.2776235342025757,
                1.5847699642181396
            ]
        },
        {
            "mesh" : 3,
            "name" : "Sphere",
            "translation" : [
                1.847940444946289,
                1.2253671884536743,
                -1.8875820636749268
            ]
        },
        {
            "mesh" : 4,
            "name" : "Torus.002",
            "rotation" : [
                0,
                0,
                -0.02653982862830162,
                0.9996477365493774
            ],
            "scale" : [
                1,
                2.2061660289764404,
                1
            ],
            "translation" : [
                -1.3155605792999268,
                1.4226298332214355,
                -0.8834275007247925
            ]
        }
    ],
    "materials" : [
        {
            "doubleSided" : true,
            "emissiveFactor" : [
                0,
                0,
                0
            ],
            "name" : "Material.001",
            "pbrMetallicRoughness" : {
                "baseColorFactor" : [
                    0.04586249589920044,
                    0.3379395008087158,
                    0.8829282522201538,
                    1
                ],
                "metallicFactor" : 0,
                "roughnessFactor" : 1
            }
        },
        {
            "doubleSided" : true,
            "emissiveFactor" : [
                0,
                0,
                0
            ],
            "name" : "Material.006",
            "pbrMetallicRoughness" : {
                "baseColorFactor" : [
                    0.7911495566368103,
                    0.8000000715255737,
                    0.03228696063160896,
                    1
                ],
                "metallicFactor" : 0,
                "roughnessFactor" : 0.5
            }
        },
        {
            "doubleSided" : true,
            "emissiveFactor" : [
                0,
                0,
                0
            ],
            "name" : "Material.002",
            "pbrMetallicRoughness" : {
                "baseColorFactor" : [
                    0.4902295768260956,
                    0.2284347116947174,
                    0.0357656255364418,
                    1
                ],
                "metallicFactor" : 0,
                "roughnessFactor" : 0.5
            }
        },
        {
            "doubleSided" : true,
            "emissiveFactor" : [
                0,
                0,
                0
            ],
            "name" : "Material.003",
            "pbrMetallicRoughness" : {
                "baseColorFactor" : [
                    0.011724984273314476,
                    0.40793943405151367,
                    0.013494622893631458,
                    1
                ],
                "metallicFactor" : 0,
                "roughnessFactor" : 0.5
            }
        },
        {
            "doubleSided" : true,
            "emissiveFactor" : [
                0,
                0,
                0
            ],
            "name" : "Material.004",
            "pbrMetallicRoughness" : {
                "baseColorFactor" : [
                    0.21401377022266388,
                    0.21401377022266388,
                    0.21401377022266388,
                    1
                ],
                "metallicFactor" : 0,
                "roughnessFactor" : 0.5
            }
        }
    ],
    "meshes" : [
        {
            "name" : "Cube",
            "primitives" : [
                {
                    "attributes" : {
                        "POSITION" : 0,
                        "NORMAL" : 1,
                        "TEXCOORD_0" : 2
                    },
                    "indices" : 3,
                    "material" : 0
                }
            ]
        },
        {
            "name" : "Torus",
            "primitives" : [
                {
                    "attributes" : {
                        "POSITION" : 4,
                        "NORMAL" : 5,
                        "TEXCOORD_0" : 6
                    },
                    "indices" : 7,
                    "material" : 1
                }
            ]
        },
        {
            "name" : "Cube.001",
            "primitives" : [
                {
                    "attributes" : {
                        "POSITION" : 8,
                        "NORMAL" : 9,
                        "TEXCOORD_0" : 10
                    },
                    "indices" : 11,
                    "material" : 2
                }
            ]
        },
        {
            "name" : "Sphere",
            "primitives" : [
                {
                    "attributes" : {
                        "POSITION" : 12,
                        "NORMAL" : 13,
                        "TEXCOORD_0" : 14
                    },
                    "indices" : 15,
                    "material" : 3
                }
            ]
        },
        {
            "name" : "Torus.002",
            "primitives" : [
                {
                    "attributes" : {
                        "POSITION" : 16,
                        "NORMAL" : 17,
                        "TEXCOORD_0" : 18
                    },
                    "indices" : 7,
                    "material" : 4
                }
            ]
        }
    ],
    "accessors" : [
        {
            "bufferView" : 0,
            "componentType" : 5126,
            "count" : 170,
            "max" : [
                1,
                4.20992374420166,
                1
            ],
            "min" : [
                -1,
                -1,
                -1
            ],
            "type" : "VEC3"
        },
        {
            "bufferView" : 1,
            "componentType" : 5126,
            "count" : 170,
            "type" : "VEC3"
        },
        {
            "bufferView" : 2,
            "componentType" : 5126,
            "count" : 170,
            "type" : "VEC2"
        },
        {
            "bufferView" : 3,
            "componentType" : 5123,
            "count" : 276,
            "type" : "SCALAR"
        },
        {
            "bufferView" : 4,
            "componentType" : 5126,
            "count" : 2304,
            "max" : [
                1.25,
                0.25,
                1.25
            ],
            "min" : [
                -1.25,
                -0.25,
                -1.25
            ],
            "type" : "VEC3"
        },
        {
            "bufferView" : 5,
            "componentType" : 5126,
            "count" : 2304,
            "type" : "VEC3"
        },
        {
            "bufferView" : 6,
            "componentType" : 5126,
            "count" : 2304,
            "type" : "VEC2"
        },
        {
            "bufferView" : 7,
            "componentType" : 5123,
            "count" : 3456,
            "type" : "SCALAR"
        },
        {
            "bufferView" : 8,
            "componentType" : 5126,
            "count" : 72,
            "max" : [
                1.4141438007354736,
                3.2995858192443848,
                1.4141435623168945
            ],
            "min" : [
                -1.4141433238983154,
                -1,
                -1.4141435623168945
            ],
            "type" : "VEC3"
        },
        {
            "bufferView" : 9,
            "componentType" : 5126,
            "count" : 72,
            "type" : "VEC3"
        },
        {
            "bufferView" : 10,
            "componentType" : 5126,
            "count" : 72,
            "type" : "VEC2"
        },
        {
            "bufferView" : 11,
            "componentType" : 5123,
            "count" : 108,
            "type" : "SCALAR"
        },
        {
            "bufferView" : 12,
            "componentType" : 5126,
            "count" : 1984,
            "max" : [
                1.000000238418579,
                1,
                1.0000003576278687
            ],
            "min" : [
                -0.9999998211860657,
                -1,
                -1
            ],
            "type" : "VEC3"
        },
        {
            "bufferView" : 13,
            "componentType" : 5126,
            "count" : 1984,
            "type" : "VEC3"
        },
        {
            "bufferView" : 14,
            "componentType" : 5126,
            "count" : 1984,
            "type" : "VEC2"
        },
        {
            "bufferView" : 15,
            "componentType" : 5123,
            "count" : 2880,
            "type" : "SCALAR"
        },
        {
            "bufferView" : 16,
            "componentType" : 5126,
            "count" : 2304,
            "max" : [
                1.25,
                0.25,
                1.25
            ],
            "min" : [
                -1.25,
                -0.25,
                -1.25
            ],
            "type" : "VEC3"
        },
        {
            "bufferView" : 17,
            "componentType" : 5126,
            "count" : 2304,
            "type" : "VEC3"
        },
        {
            "bufferView" : 18,
            "componentType" : 5126,
            "count" : 2304,
            "type" : "VEC2"
        }
    ],
    "bufferViews" : [
        {
            "buffer" : 0,
            "byteLength" : 2040,
            "byteOffset" : 0
        },
        {
            "buffer" : 0,
            "byteLength" : 2040,
            "byteOffset" : 2040
        },
        {
            "buffer" : 0,
            "byteLength" : 1360,
            "byteOffset" : 4080
        },
        {
            "buffer" : 0,
            "byteLength" : 552,
            "byteOffset" : 5440
        },
        {
            "buffer" : 0,
            "byteLength" : 27648,
            "byteOffset" : 5992
        },
        {
            "buffer" : 0,
            "byteLength" : 27648,
            "byteOffset" : 33640
        },
        {
            "buffer" : 0,
            "byteLength" : 18432,
            "byteOffset" : 61288
        },
        {
            "buffer" : 0,
            "byteLength" : 6912,
            "byteOffset" : 79720
        },
        {
            "buffer" : 0,
            "byteLength" : 864,
            "byteOffset" : 86632
        },
        {
            "buffer" : 0,
            "byteLength" : 864,
            "byteOffset" : 87496
        },
        {
            "buffer" : 0,
            "byteLength" : 576,
            "byteOffset" : 88360
        },
        {
            "buffer" : 0,
            "byteLength" : 216,
            "byteOffset" : 88936
        },
        {
            "buffer" : 0,
            "byteLength" : 23808,
            "byteOffset" : 89152
        },
        {
            "buffer" : 0,
            "byteLength" : 23808,
            "byteOffset" : 112960
        },
        {
            "buffer" : 0,
            "byteLength" : 15872,
            "byteOffset" : 136768
        },
        {
            "buffer" : 0,
            "byteLength" : 5760,
            "byteOffset" : 152640
        },
        {
            "buffer" : 0,
            "byteLength" : 27648,
            "byteOffset" : 158400
        },
        {
            "buffer" : 0,
            "byteLength" : 27648,
            "byteOffset" : 186048
        },
        {
            "buffer" : 0,
            "byteLength" : 18432,
            "byteOffset" : 213696
        }
    ],
    "buffers" : [
        {
            "byteLength" : 232128,
            "uri" : "data:application/octet-stream;base64,"
        }
    ]
}
